<?xml version="1.0" encoding="utf-8"?>
<svg viewBox="-589.921 -389.119 1912.531 1066.395" xmlns="http://www.w3.org/2000/svg">
  <g mask="url(&quot;#SvgjsMask1037&quot;)" fill="none" transform="matrix(1, 0, 0, 1, -594.0634765624999, -391.2504882812499)">
    <rect width="1920" height="1080" x="0" y="0" fill="#030d26"/>
    <path d="M 0 654.123 C 172.158 690.098 334.337 1012.4 604.842 846.287 C 750.535 756.819 771.515 550.479 824.347 387.876 C 870.457 245.961 823.798 31.905 791.817 -113.846 C 760.278 -257.584 602.371 -327.601 512.938 -444.463 C 415.702 -571.521 384.738 -754.457 243.722 -830.041 C 95.295 -909.597 -95.85 -919.982 -250.687 -853.762 C -401.186 -789.397 -479.833 -628.2 -560.822 -485.955 C -629.207 -365.849 -641.778 -230.435 -681.039 -97.919 C -728.288 61.56 -880.834 219.453 -815.078 372.234 C -749.626 524.309 -539.108 541.285 -382.639 595.399 C -258.166 638.447 -128.922 627.183 0 654.123" fill="#071846"/>
    <path d="M 1920 1951.059 C 2082.508 1954.187 2146.984 1731.844 2272.719 1628.842 C 2379.656 1541.239 2525.163 1506.222 2602.711 1391.784 C 2687.411 1266.791 2748.079 1113.433 2722.86 964.566 C 2697.813 816.713 2569.211 715.857 2469.266 604.058 C 2370.91 494.035 2286.486 355.559 2144.018 317.066 C 2002.276 278.769 1662.709 219.938 1525.777 272.918 C 1398.758 322.063 1207.145 377.575 1125.986 486.947 C 1047.304 592.982 1049.693 760.963 1076.703 900.536 C 1105.866 1051.232 1131.278 1278.227 1193.248 1411.897 C 1255.269 1545.678 1457.476 1527.57 1575.902 1615.428 C 1707.243 1712.867 1756.492 1947.911 1920 1951.059" fill="#071846"/>
  </g>
</svg>