<?xml version="1.0" encoding="utf-8"?>
<svg viewBox="0 0 24 24" width="800px" height="800px" fill="none" xmlns="http://www.w3.org/2000/svg">
  <path
    d="M22 6V8.42C22 10 21 11 19.42 11H16V4.01C16 2.9 16.91 2 18.02 2C19.11 2.01 20.11 2.45 20.83 3.17C21.55 3.9 22 4.9 22 6Z"
    stroke="#e2e7fe" stroke-width="1.5" stroke-miterlimit="10" stroke-linecap="round" stroke-linejoin="round"
    transform="matrix(1, 0, 0, 1, 0, 0)" />
  <path
    d="M2 7V21C2 21.83 2.93998 22.3 3.59998 21.8L5.31 20.52C5.71 20.22 6.27 20.26 6.63 20.62L8.28998 22.29C8.67998 22.68 9.32002 22.68 9.71002 22.29L11.39 20.61C11.74 20.26 12.3 20.22 12.69 20.52L14.4 21.8C15.06 22.29 16 21.82 16 21V4C16 2.9 16.9 2 18 2H7H6C3 2 2 3.79 2 6V7Z"
    stroke="#e2e7fe" stroke-width="1.5" stroke-miterlimit="10" stroke-linecap="round" stroke-linejoin="round"
    transform="matrix(1, 0, 0, 1, 0, 0)" />
  <path d="M 6 5.528 L 12 5.528" stroke="#c1fa24" stroke-width="1.5" stroke-linecap="round" stroke-linejoin="round"
    transform="matrix(1, 0, 0, 1, 0, 0)" />
  <path d="M 6.75 17.63 L 11.25 17.63" stroke="#c1fa24" stroke-width="1.5" stroke-linecap="round"
    stroke-linejoin="round" transform="matrix(1, 0, 0, 1, 0, 0)" />
  <text
    style="fill: #c1fa24; font-family: 'MS Reference Sans Serif'; font-size: 8px; font-weight: 700; white-space: pre;"
    x="3.563" y="14.861" dx="-0.022" dy="-0.191">Un</text>
</svg>